<svg xmlns="http://www.w3.org/2000/svg" viewBox="0 0 64 64">
  <defs>
    <linearGradient id="g" x1="0%" y1="0%" x2="100%" y2="100%">
      <stop offset="0%" stop-color="#3b82f6"/>
      <stop offset="100%" stop-color="#8b5cf6"/>
    </linearGradient>
  </defs>
  <rect width="64" height="64" rx="12" fill="url(#g)"/>
  <!-- Parachute canopy -->
  <path d="M12 28c0-12 9-20 20-20s20 8 20 20" fill="none" stroke="#fff" stroke-width="3" stroke-linecap="round"/>
  <path d="M12 28c4-6 8-8 10-4s2 8 10 4" fill="none" stroke="#fff" stroke-width="2.5" stroke-linecap="round"/>
  <path d="M32 28c4 4 6-2 10-4s6-2 10 4" fill="none" stroke="#fff" stroke-width="2.5" stroke-linecap="round"/>
  <path d="M22 24c0 0 2 4 10 4s10-4 10-4" fill="none" stroke="#fff" stroke-width="2" stroke-linecap="round"/>
  <!-- Suspension lines -->
  <line x1="16" y1="26" x2="28" y2="46" stroke="#fff" stroke-width="1.5"/>
  <line x1="32" y1="28" x2="32" y2="46" stroke="#fff" stroke-width="1.5"/>
  <line x1="48" y1="26" x2="36" y2="46" stroke="#fff" stroke-width="1.5"/>
  <!-- Cargo box -->
  <rect x="26" y="44" width="12" height="10" rx="2" fill="#fff"/>
</svg>
